<mxfile host="65bd71144e">
    <diagram id="fmu-V0Jj6PFSNfMzoVkl" name="Page-1">
        <mxGraphModel dx="1518" dy="635" grid="1" gridSize="10" guides="1" tooltips="1" connect="1" arrows="1" fold="1" page="1" pageScale="1" pageWidth="850" pageHeight="1100" math="0" shadow="0">
            <root>
                <mxCell id="0"/>
                <mxCell id="1" parent="0"/>
                <mxCell id="26" style="edgeStyle=none;html=1;exitX=0;exitY=0.5;exitDx=0;exitDy=0;" edge="1" parent="1" source="25">
                    <mxGeometry relative="1" as="geometry">
                        <mxPoint x="360" y="355" as="targetPoint"/>
                    </mxGeometry>
                </mxCell>
                <mxCell id="25" value="&lt;h1&gt;Lists of commands in a vector&lt;/h1&gt;" style="rounded=0;whiteSpace=wrap;html=1;fontFamily=Helvetica;fillColor=#008a00;fontColor=#ffffff;strokeColor=#005700;" vertex="1" parent="1">
                    <mxGeometry x="470" y="290" width="210" height="130" as="geometry"/>
                </mxCell>
                <mxCell id="29" value="" style="edgeStyle=none;html=1;" edge="1" parent="1" source="27" target="28">
                    <mxGeometry relative="1" as="geometry"/>
                </mxCell>
                <mxCell id="27" value="&lt;h1&gt;Loop through them to use exec()&lt;/h1&gt;" style="rounded=0;whiteSpace=wrap;html=1;fontFamily=Helvetica;fillColor=#008a00;fontColor=#ffffff;strokeColor=#005700;" vertex="1" parent="1">
                    <mxGeometry x="140" y="290" width="220" height="130" as="geometry"/>
                </mxCell>
                <mxCell id="31" value="" style="edgeStyle=none;html=1;" edge="1" parent="1" source="28" target="30">
                    <mxGeometry relative="1" as="geometry"/>
                </mxCell>
                <mxCell id="28" value="&lt;h1&gt;Save them in a new vector&lt;/h1&gt;" style="rounded=0;whiteSpace=wrap;html=1;fontFamily=Helvetica;fillColor=#008a00;fontColor=#ffffff;strokeColor=#005700;" vertex="1" parent="1">
                    <mxGeometry x="140" y="500" width="220" height="130" as="geometry"/>
                </mxCell>
                <mxCell id="33" value="" style="edgeStyle=none;html=1;" edge="1" parent="1" source="30" target="32">
                    <mxGeometry relative="1" as="geometry"/>
                </mxCell>
                <mxCell id="30" value="&lt;h1&gt;for loop to print the output under system checkup&lt;/h1&gt;" style="rounded=0;whiteSpace=wrap;html=1;fontFamily=Helvetica;fillColor=#008a00;fontColor=#ffffff;strokeColor=#005700;" vertex="1" parent="1">
                    <mxGeometry x="140" y="710" width="220" height="130" as="geometry"/>
                </mxCell>
                <mxCell id="32" value="&lt;h1&gt;end&lt;/h1&gt;" style="ellipse;whiteSpace=wrap;html=1;fillColor=#008a00;strokeColor=#005700;fontColor=#ffffff;rounded=0;" vertex="1" parent="1">
                    <mxGeometry x="210" y="945" width="80" height="80" as="geometry"/>
                </mxCell>
            </root>
        </mxGraphModel>
    </diagram>
</mxfile>